# xmcd
#
# Track frame offsets: 
#        150
#        17346
#        42204
#        57783
#        75398
#        98387
#        112295
#        126899
#        147761
#        172030
#        194352
#        213545
#        230217
#
# Disc length: 3336 seconds
#
# Revision: 2
# Processed by: cddbd v1.5.2PL0 Copyright (c) Steve Scherf et al.
# Submitted via: ExactAudioCopyFreeDBPlugin 1.0
#
DISCID=ae0d060d
DTITLE=Wizards of Kaos - Wizards of Kaos
DYEAR=2012
DGENRE=Stoner Rock
TTITLE0=Zeros and Ones
TTITLE1=Bombs and Gasoline
TTITLE2=Coyote Eyes
TTITLE3=Digging Up Our Dead
TTITLE4=Down from the Skies
TTITLE5=Ear Hole
TTITLE6=New World Mistress
TTITLE7=Pain and Misery
TTITLE8=Running Red
TTITLE9=Sixteen
TTITLE10=The Great Shadow
TTITLE11=The River
TTITLE12=White face
EXTD=
EXTT0=
EXTT1=
EXTT2=
EXTT3=
EXTT4=
EXTT5=
EXTT6=
EXTT7=
EXTT8=
EXTT9=
EXTT10=
EXTT11=
EXTT12=
PLAYORDER=
